<mxfile host="app.diagrams.net" modified="2024-06-12T01:40:47.839Z" agent="Mozilla/5.0 (Windows NT 10.0; Win64; x64) AppleWebKit/537.36 (KHTML, like Gecko) Chrome/125.0.0.0 Safari/537.36 Edg/125.0.0.0" etag="WQ3M4nH1_H2UqIelWeOc" version="24.5.3" type="github">
  <diagram name="Page-1" id="Q9SK3EAigwrXHSehqMxW">
    <mxGraphModel dx="3064" dy="1740" grid="1" gridSize="10" guides="1" tooltips="1" connect="1" arrows="1" fold="1" page="1" pageScale="1" pageWidth="850" pageHeight="1100" math="0" shadow="0">
      <root>
        <mxCell id="0" />
        <mxCell id="1" parent="0" />
      </root>
    </mxGraphModel>
  </diagram>
</mxfile>
